<?xml version="1.0" encoding="UTF-8"?>
<svg width="38px" height="50px" viewBox="0 0 38 50" version="1.1" xmlns="http://www.w3.org/2000/svg" xmlns:xlink="http://www.w3.org/1999/xlink">
    <title>sector</title>
    <g id="Page-1" stroke="none" stroke-width="1" fill="none" fill-rule="evenodd">
        <g id="sector" transform="translate(0.000000, 0.134682)" fill="#000" fill-rule="nonzero">
            <path d="M29.6,14.8653181 L37.2,7.06531813 L36.5,6.36531813 C27.8,-1.93468187 14.5,-2.13468187 6.7,5.86531813 C2.9,9.76531813 1,15.0653181 1.3,20.6653181 C1.6,25.8653181 3.8,30.8653181 7.6,34.8653181 L0,42.6653181 L0.7,43.3653181 C4.9,47.3653181 10.2,49.6653181 15.8,49.7653181 L16.2,49.7653181 C21.7,49.7653181 26.7,47.6653181 30.4,43.8653181 C34.2,39.9653181 36.1,34.7653181 35.8,29.0653181 C35.5,23.7653181 33.3,18.8653181 29.6,14.8653181 Z M8.1,7.26531813 C11.5,3.76531813 16.1,1.96531813 20.8,1.96531813 C25.5,1.96531813 30.3,3.66531813 34.2,7.16531813 L8.9,33.3653181 C5.6,29.8653181 3.6,25.2653181 3.3,20.5653181 C3,15.4653181 4.8,10.7653181 8.1,7.26531813 Z M29,42.4653181 C25.6,45.9653181 21,47.8653181 15.9,47.7653181 C11.1,47.6653181 6.5,45.8653181 2.9,42.5653181 L9,36.2653181 L28.2,16.3653181 C31.6,19.9653181 33.6,24.4653181 33.8,29.1653181 C34.1,34.2653181 32.4,38.9653181 29,42.4653181 Z" id="Shape"></path>
        </g>
    </g>
</svg>
